<svg id="Layer_3" data-name="Layer 3" xmlns="http://www.w3.org/2000/svg" viewBox="0 0 3079.07 931.63"><defs><style>.cls-1{fill:#1b43ad;}.cls-2,.cls-3{fill:#1d2c47;}.cls-3{font-size:80px;font-family:Montserrat-SemiBoldItalic, Montserrat;font-weight:700;font-style:italic;}.cls-4{letter-spacing:0.5em;}.cls-5{letter-spacing:0.92em;}.cls-6{letter-spacing:0.93em;}.cls-7{letter-spacing:0.52em;}.cls-8{letter-spacing:0.52em;}.cls-9{letter-spacing:0.92em;}.cls-10{letter-spacing:0.92em;}</style></defs><title>rocky-mountain-ada</title><path class="cls-1" d="M329.72,555.65V539.3q-5,9.84-12.94,14.76T297.86,559a45.58,45.58,0,0,1-26.36-8.23q-12-8.22-12-36V499.63q0-20.61,6.37-28.08t31.59-17.43q27-10.78,28.87-14.53t1.9-15.21q0-14.38-2.1-18.75a7.2,7.2,0,0,0-7-4.35c-3.71,0-6,1.22-6.92,3.66s-1.35,8.79-1.35,19v19.23H259.5V430.88q0-21.3,4.81-32.85t19.32-20.41q14.5-8.85,37.69-8.85,24.35,0,38.18,7.7V240.34l-120,100v350l120-100V555.65Z"/><path class="cls-1" d="M313,484.83q-2.1,6.65-2.1,19.09,0,14.25,1.83,18.4c1.22,2.76,3.64,4.15,7.25,4.15,3.44,0,5.67-1.09,6.71-3.25s1.56-7.87,1.56-17.09V468.37Q315.07,478.2,313,484.83Z"/><path class="cls-1" d="M609.72,555.65V539.3q-5,9.84-12.94,14.76T577.87,559a45.61,45.61,0,0,1-26.37-8.23q-12-8.22-12-36V499.63q0-20.61,6.37-28.08t31.59-17.43q27-10.78,28.87-14.53t1.9-15.21q0-14.38-2.1-18.75a7.2,7.2,0,0,0-7-4.35q-5.56,0-6.91,3.66t-1.36,19v19.23H539.5V430.88q0-21.3,4.81-32.85t19.32-20.41q14.5-8.85,37.69-8.85,24.34,0,38.18,7.7V240.34l-120,100v350l120-100V555.65Z"/><path class="cls-1" d="M593,484.83q-2.1,6.65-2.1,19.09,0,14.25,1.83,18.4c1.22,2.76,3.64,4.15,7.25,4.15,3.44,0,5.67-1.09,6.71-3.25s1.56-7.87,1.56-17.09V468.37Q595.08,478.2,593,484.83Z"/><path class="cls-1" d="M462.54,401.28c-3.26,0-5.45,1-6.58,3.11s-1.69,6.71-1.69,13.9v89.92q0,11.2,1.62,14.73t6.24,3.53c3.53,0,5.87-1.32,7.05-4s1.76-9.06,1.76-19.29V418.29q0-10.1-1.69-13.55T462.54,401.28Z"/><path class="cls-1" d="M470.94,555.65V542.34a56.48,56.48,0,0,1-16.54,12.48A41.54,41.54,0,0,1,436.24,559a36.43,36.43,0,0,1-22.1-6.84q-9.34-6.86-12-15.84T399.5,507v-85.9q0-21.17,2.64-30t12.14-15.56q9.48-6.71,22.64-6.71a45.74,45.74,0,0,1,18.64,3.74,46.63,46.63,0,0,1,15.38,11.23v-52H499.5V240.34l-120,100v350l120-100V555.65Z"/><path class="cls-2" d="M830.36,364.22,812.89,331H789.6v33.21H758.25v-120h54q23.81,0,36.91,11t13.1,31.07q0,13.53-5.48,23.37A38,38,0,0,1,840.81,325l25,39.2ZM789.6,306h22.78q9.58,0,14.81-4.8t5.23-13.86q0-8.73-5.23-13.44t-14.81-4.71H789.6Z"/><path class="cls-2" d="M1006.87,250.38A59.66,59.66,0,0,1,1038.65,304a60.74,60.74,0,0,1-31.78,54.27,71.22,71.22,0,0,1-66.28.08,60.23,60.23,0,0,1-23.3-22.42A61.42,61.42,0,0,1,908.81,304a59.66,59.66,0,0,1,31.78-53.58,72.32,72.32,0,0,1,66.28,0Zm-49.33,23.11a33.37,33.37,0,0,0-12.07,12.75,38.15,38.15,0,0,0,.08,35.95A34.8,34.8,0,0,0,957.63,335a30.41,30.41,0,0,0,16.44,4.71A30,30,0,0,0,990.43,335a33,33,0,0,0,11.73-12.84,39.8,39.8,0,0,0,0-35.95,32.47,32.47,0,0,0-11.73-12.75,30.45,30.45,0,0,0-16.36-4.62A31.31,31.31,0,0,0,957.54,273.49Z"/><path class="cls-2" d="M1159.41,273.23a33.23,33.23,0,0,0-15.93-4.36,31.08,31.08,0,0,0-16.53,4.54,32.18,32.18,0,0,0-11.74,12.49,38.82,38.82,0,0,0,0,35.44A32.18,32.18,0,0,0,1127,333.83a31.08,31.08,0,0,0,16.53,4.54,36.26,36.26,0,0,0,15.41-3.77,48.64,48.64,0,0,0,14.39-10.27L1191.61,344a73.3,73.3,0,0,1-23.21,16.35,64.46,64.46,0,0,1-58.84-2.14A60,60,0,0,1,1087,335.8a62.4,62.4,0,0,1-8.22-31.84,59.78,59.78,0,0,1,31.43-53.58,68.36,68.36,0,0,1,59.18-2.48,65.49,65.49,0,0,1,22.1,15.15L1173.28,285A44.76,44.76,0,0,0,1159.41,273.23Z"/><path class="cls-2" d="M1354.67,364.22h-37.51l-31.52-46.56-15.07,16.77v29.79h-31.35v-120h31.35v52l45-52h36.31l-44.53,49.47Z"/><path class="cls-2" d="M1508.14,244.22l-43.33,81.65v38.35h-31.35V326.73l-44.19-82.51h31.35l28.43,51.53,27.75-51.53Z"/><path class="cls-2" d="M1646.44,244.22h34.08l34.78,70.18,34.6-70.18H1784v120h-27.75l-.17-76-30.66,64h-20.21l-30.83-64v76h-27.92Z"/><path class="cls-2" d="M1931.89,250.38a60.36,60.36,0,0,1,23.29,22.08,59.67,59.67,0,0,1,8.48,31.5,60.76,60.76,0,0,1-31.77,54.27,71.24,71.24,0,0,1-66.29.08,60.2,60.2,0,0,1-23.29-22.42,61.32,61.32,0,0,1-8.48-31.93,59.67,59.67,0,0,1,8.48-31.5,60.29,60.29,0,0,1,23.29-22.08,72.34,72.34,0,0,1,66.29,0Zm-49.33,23.11a33.39,33.39,0,0,0-12.08,12.75,38.19,38.19,0,0,0,.09,35.95A34.77,34.77,0,0,0,1882.64,335a30.47,30.47,0,0,0,16.45,4.71,30,30,0,0,0,16.35-4.71,33.1,33.1,0,0,0,11.74-12.84,39.88,39.88,0,0,0,0-35.95,32.57,32.57,0,0,0-11.74-12.75,30.42,30.42,0,0,0-16.35-4.62A31.31,31.31,0,0,0,1882.56,273.49Z"/><path class="cls-2" d="M2049.48,332.89a22.64,22.64,0,0,0,16.95,6.85q10.11,0,16.36-6.76t6.25-18.23V244.22h31.35v70.53q0,15.57-6.6,27.3A44.51,44.51,0,0,1,2095,360.11q-12.24,6.33-28.69,6.34t-28.86-6.34a45.42,45.42,0,0,1-19.18-18.06q-6.78-11.71-6.77-27.3V244.22h31.35v70.53Q2042.8,326,2049.48,332.89Z"/><path class="cls-2" d="M2258.1,244.22h29.12v120h-27.4l-54.47-71.73v71.73h-29.29v-120h27.57l54.64,72.24Z"/><path class="cls-2" d="M2334.5,244.22h102.94v25.85h-36v94.15h-31.35V270.07H2334.5Z"/><path class="cls-2" d="M2559.74,364.22,2551.52,343h-51.9l-8.4,21.23H2459l51.56-120h32.2l50.36,120ZM2509,319h33.23l-16.44-42.8Z"/><path class="cls-2" d="M2638.19,244.22h31.34v120h-31.34Z"/><path class="cls-2" d="M2809.13,244.22h29.12v120h-27.41l-54.47-71.73v71.73h-29.29v-120h27.58l54.64,72.24Z"/><path class="cls-2" d="M837,520.4l-7.53-18.63H785.11l-7.53,18.63H755.25l41.64-95.9h22.33l40.95,95.9Zm-44.79-36h30.28l-15.07-37.26Z"/><path class="cls-2" d="M1064.4,430.6a44.18,44.18,0,0,1,17.88,17,48.36,48.36,0,0,1,6.37,24.86,47.55,47.55,0,0,1-6.51,24.87,44.93,44.93,0,0,1-18.15,17,56.36,56.36,0,0,1-26.57,6.1H997.56V424.5h40.68A55,55,0,0,1,1064.4,430.6Zm-11.3,67.81a26.06,26.06,0,0,0,9.93-10.48,32.15,32.15,0,0,0,3.56-15.34,31.56,31.56,0,0,0-3.76-15.48,27.08,27.08,0,0,0-10.28-10.62,28.82,28.82,0,0,0-14.72-3.77H1019.2v59.46h19.59A27.58,27.58,0,0,0,1053.1,498.41Z"/><path class="cls-2" d="M1298.49,520.4,1291,501.77h-44.38l-7.53,18.63h-22.33l41.64-95.9h22.33l41,95.9Zm-44.79-36H1284l-15.06-37.26Z"/><path class="cls-2" d="M1704.45,445.26a29.34,29.34,0,0,0-13.35-3.36,28.69,28.69,0,0,0-25.34,14.8,30.52,30.52,0,0,0-3.84,15.2,31,31,0,0,0,3.84,15.28,28.9,28.9,0,0,0,10.54,11,28.21,28.21,0,0,0,14.8,4,31,31,0,0,0,13.08-3.08,41.19,41.19,0,0,0,11.85-8.29l12.74,13.84a57.78,57.78,0,0,1-18,12.6,50.05,50.05,0,0,1-20.75,4.66,51.07,51.07,0,0,1-25.61-6.51,47.55,47.55,0,0,1-18.08-17.88,49.64,49.64,0,0,1-6.58-25.34,47.86,47.86,0,0,1,25.14-42.75,53,53,0,0,1,26-6.44,54.15,54.15,0,0,1,37.81,16L1716,454.5A36.52,36.52,0,0,0,1704.45,445.26Z"/><path class="cls-2" d="M1869,424.5h73v17.95h-51.36v20.82h46.16v18h-46.16v21.23h52.87V520.4H1869Z"/><path class="cls-2" d="M2154.21,424.5h20.55v95.9H2155l-46.43-61.65V520.4h-20.69V424.5h19.73l46.57,61.92Z"/><path class="cls-2" d="M2313.78,424.5h80.14v18.36H2364.6V520.4H2343V442.86h-29.18Z"/><path class="cls-2" d="M2532.94,424.5h73v17.95h-51.36v20.82h46.16v18h-46.16v21.23h52.87V520.4h-74.52Z"/><path class="cls-2" d="M2810.73,520.4l-15.2-27.4h-22.06v27.4h-21.64V424.5h41.64q18.77,0,29,8.7t10.27,24.59q0,11.1-4.58,19a29.51,29.51,0,0,1-13.36,12l20.41,31.65Zm-37.26-45.48h20q9,0,13.91-4.18t4.86-12.26q0-8-4.86-12t-13.91-4h-20Z"/><rect class="cls-2" x="750.5" y="572.5" width="2088" height="6"/><text class="cls-3" transform="translate(848.5 686.36)"><tspan class="cls-4">C</tspan><tspan class="cls-5" x="97.95" y="0">O</tspan><tspan class="cls-6" x="236.37" y="0">•</tspan><tspan class="cls-7" x="336.23" y="0">M</tspan><tspan class="cls-5" x="452.9" y="0">T•</tspan><tspan class="cls-8" x="673.35" y="0">N</tspan><tspan class="cls-9" x="777.78" y="0">D•</tspan><tspan class="cls-7" x="1011.83" y="0">S</tspan><tspan class="cls-10" x="1103.37" y="0">D•</tspan><tspan class="cls-7" x="1337.42" y="0">U</tspan><tspan class="cls-5" x="1439.61" y="0">T•</tspan><tspan class="cls-7" x="1660.06" y="0">W</tspan><tspan x="1786.72" y="0">Y</tspan></text></svg>