<svg id="Layer_3" data-name="Layer 3" xmlns="http://www.w3.org/2000/svg" viewBox="0 0 3079.07 931.63"><defs><style>.cls-1{fill:#fff;}</style></defs><title>rocky-mountain-ada</title><path class="cls-1" d="M329.72,555.65V539.3q-5,9.84-12.94,14.76T297.86,559a45.58,45.58,0,0,1-26.36-8.23q-12-8.22-12-36V499.63q0-20.61,6.37-28.08t31.59-17.43q27-10.78,28.87-14.53t1.9-15.21q0-14.38-2.1-18.75a7.2,7.2,0,0,0-7-4.35c-3.71,0-6,1.22-6.92,3.66s-1.35,8.79-1.35,19v19.23H259.5V430.88q0-21.3,4.81-32.85t19.32-20.41q14.5-8.85,37.69-8.85,24.35,0,38.18,7.7V240.34l-120,100v350l120-100V555.65Z"/><path class="cls-1" d="M313,484.83q-2.1,6.65-2.1,19.09,0,14.25,1.83,18.4c1.22,2.76,3.64,4.15,7.25,4.15,3.44,0,5.67-1.09,6.71-3.25s1.56-7.87,1.56-17.09V468.37Q315.07,478.2,313,484.83Z"/><path class="cls-1" d="M609.72,555.65V539.3q-5,9.84-12.94,14.76T577.87,559a45.61,45.61,0,0,1-26.37-8.23q-12-8.22-12-36V499.63q0-20.61,6.37-28.08t31.59-17.43q27-10.78,28.87-14.53t1.9-15.21q0-14.38-2.1-18.75a7.2,7.2,0,0,0-7-4.35q-5.56,0-6.91,3.66t-1.36,19v19.23H539.5V430.88q0-21.3,4.81-32.85t19.32-20.41q14.5-8.85,37.69-8.85,24.34,0,38.18,7.7V240.34l-120,100v350l120-100V555.65Z"/><path class="cls-1" d="M593,484.83q-2.1,6.65-2.1,19.09,0,14.25,1.83,18.4c1.22,2.76,3.64,4.15,7.25,4.15,3.44,0,5.67-1.09,6.71-3.25s1.56-7.87,1.56-17.09V468.37Q595.08,478.2,593,484.83Z"/><path class="cls-1" d="M462.54,401.28c-3.26,0-5.45,1-6.58,3.11s-1.69,6.71-1.69,13.9v89.92q0,11.2,1.62,14.73t6.24,3.53c3.53,0,5.87-1.32,7.05-4s1.76-9.06,1.76-19.29V418.29q0-10.1-1.69-13.55T462.54,401.28Z"/><path class="cls-1" d="M470.94,555.65V542.34a56.48,56.48,0,0,1-16.54,12.48A41.54,41.54,0,0,1,436.24,559a36.43,36.43,0,0,1-22.1-6.84q-9.34-6.86-12-15.84T399.5,507v-85.9q0-21.17,2.64-30t12.14-15.56q9.48-6.71,22.64-6.71a45.74,45.74,0,0,1,18.64,3.74,46.63,46.63,0,0,1,15.38,11.23v-52H499.5V240.34l-120,100v350l120-100V555.65Z"/><path class="cls-1" d="M831.61,434.43l-17.47-33.21H790.85v33.21H759.5v-120h54q23.81,0,36.91,11t13.1,31.07q0,13.53-5.48,23.37a37.89,37.89,0,0,1-15.93,15.32l25,39.2Zm-40.76-58.2h22.78q9.58,0,14.81-4.79t5.23-13.87q0-8.73-5.23-13.44t-14.81-4.7H790.85Z"/><path class="cls-1" d="M1008.12,320.6a59.66,59.66,0,0,1,31.78,53.58,60.71,60.71,0,0,1-31.78,54.26,71.26,71.26,0,0,1-66.28.09,60.25,60.25,0,0,1-23.3-22.43,61.41,61.41,0,0,1-8.48-31.92,59.66,59.66,0,0,1,31.78-53.58,72.24,72.24,0,0,1,66.28,0Zm-49.33,23.11a33.3,33.3,0,0,0-12.07,12.75,38.15,38.15,0,0,0,.08,36,34.88,34.88,0,0,0,12.08,12.84,30.4,30.4,0,0,0,16.44,4.7,30,30,0,0,0,16.36-4.7,33.07,33.07,0,0,0,11.73-12.84,39.8,39.8,0,0,0,0-36,32.4,32.4,0,0,0-11.73-12.75,30.37,30.37,0,0,0-16.36-4.63A31.23,31.23,0,0,0,958.79,343.71Z"/><path class="cls-1" d="M1160.66,343.45a33.25,33.25,0,0,0-15.93-4.37,31.17,31.17,0,0,0-16.53,4.54,32.14,32.14,0,0,0-11.74,12.5,38.8,38.8,0,0,0,0,35.43,32.14,32.14,0,0,0,11.74,12.5,31.17,31.17,0,0,0,16.53,4.54,36.41,36.41,0,0,0,15.41-3.77,48.82,48.82,0,0,0,14.39-10.27l18.33,19.68a73.3,73.3,0,0,1-23.21,16.35,64.46,64.46,0,0,1-58.84-2.14A60.08,60.08,0,0,1,1088.2,406a62.42,62.42,0,0,1-8.22-31.84,59.78,59.78,0,0,1,31.43-53.58,68.32,68.32,0,0,1,59.18-2.49,65.49,65.49,0,0,1,22.1,15.15l-18.16,21.91A44.87,44.87,0,0,0,1160.66,343.45Z"/><path class="cls-1" d="M1355.92,434.43h-37.51l-31.52-46.56-15.07,16.78v29.78h-31.35v-120h31.35v52l45-52h36.31l-44.53,49.48Z"/><path class="cls-1" d="M1509.39,314.43l-43.33,81.66v38.34h-31.35V396.94l-44.19-82.51h31.35L1450.3,366l27.75-51.53Z"/><path class="cls-1" d="M1647.69,314.43h34.08l34.78,70.19,34.6-70.19h34.08v120h-27.75l-.17-76-30.66,64h-20.21l-30.83-64v76h-27.92Z"/><path class="cls-1" d="M1933.14,320.6a59.68,59.68,0,0,1,31.77,53.58,60.73,60.73,0,0,1-31.77,54.26,71.28,71.28,0,0,1-66.29.09,60.23,60.23,0,0,1-23.29-22.43,61.31,61.31,0,0,1-8.48-31.92,59.68,59.68,0,0,1,31.77-53.58,72.26,72.26,0,0,1,66.29,0Zm-49.33,23.11a33.32,33.32,0,0,0-12.08,12.75,38.19,38.19,0,0,0,.09,36,34.85,34.85,0,0,0,12.07,12.84,30.46,30.46,0,0,0,16.45,4.7,30,30,0,0,0,16.35-4.7,33.17,33.17,0,0,0,11.74-12.84,39.88,39.88,0,0,0,0-36,32.5,32.5,0,0,0-11.74-12.75,30.34,30.34,0,0,0-16.35-4.63A31.23,31.23,0,0,0,1883.81,343.71Z"/><path class="cls-1" d="M2050.73,403.11a22.67,22.67,0,0,0,16.95,6.84q10.11,0,16.36-6.76t6.25-18.23V314.43h31.35V385q0,15.59-6.6,27.31a44.63,44.63,0,0,1-18.84,18.06q-12.24,6.33-28.69,6.33t-28.86-6.33a45.54,45.54,0,0,1-19.18-18.06q-6.78-11.73-6.77-27.31V314.43h31.35V385Q2044.05,396.26,2050.73,403.11Z"/><path class="cls-1" d="M2259.35,314.43h29.12v120h-27.4l-54.47-71.72v71.72h-29.29v-120h27.57l54.64,72.24Z"/><path class="cls-1" d="M2335.75,314.43h102.94v25.85h-36v94.15h-31.35V340.28h-35.62Z"/><path class="cls-1" d="M2561,434.43l-8.22-21.22h-51.9l-8.4,21.22h-32.2l51.56-120H2544l50.36,120Zm-50.7-45.19h33.23l-16.44-42.8Z"/><path class="cls-1" d="M2639.44,314.43h31.34v120h-31.34Z"/><path class="cls-1" d="M2810.38,314.43h29.12v120h-27.41l-54.47-71.72v71.72h-29.29v-120h27.58l54.64,72.24Z"/><path class="cls-1" d="M838.27,590.61,830.74,572H786.36l-7.53,18.63H756.5l41.64-95.9h22.33l40.95,95.9Zm-44.79-36h30.28l-15.07-37.26Z"/><path class="cls-1" d="M1065.65,500.81a44.31,44.31,0,0,1,17.88,17,48.39,48.39,0,0,1,6.37,24.86,47.53,47.53,0,0,1-6.51,24.87,45,45,0,0,1-18.15,17,56.47,56.47,0,0,1-26.57,6.09H998.81v-95.9h40.68A55.06,55.06,0,0,1,1065.65,500.81Zm-11.3,67.82a26.12,26.12,0,0,0,9.93-10.48,32.19,32.19,0,0,0,3.56-15.35,31.62,31.62,0,0,0-3.76-15.48,27.15,27.15,0,0,0-10.28-10.62,28.82,28.82,0,0,0-14.72-3.76h-18.63v59.45H1040A27.58,27.58,0,0,0,1054.35,568.63Z"/><path class="cls-1" d="M1299.74,590.61,1292.21,572h-44.38l-7.53,18.63H1218l41.64-95.9h22.33l41,95.9Zm-44.79-36h30.27l-15.06-37.26Z"/><path class="cls-1" d="M1705.7,515.47a29.34,29.34,0,0,0-13.35-3.36,28.74,28.74,0,0,0-25.34,14.8,30.59,30.59,0,0,0-3.84,15.21,30.92,30.92,0,0,0,3.84,15.27,28.83,28.83,0,0,0,10.54,11,28.11,28.11,0,0,0,14.8,4,30.84,30.84,0,0,0,13.08-3.08,41,41,0,0,0,11.85-8.29L1730,574.86a57.62,57.62,0,0,1-18,12.6,50.05,50.05,0,0,1-20.75,4.66,51.07,51.07,0,0,1-25.61-6.51,47.45,47.45,0,0,1-18.08-17.87,49.65,49.65,0,0,1-6.58-25.35,47.83,47.83,0,0,1,25.14-42.74,52.84,52.84,0,0,1,26-6.44,54,54,0,0,1,37.81,16l-12.6,15.48A36.41,36.41,0,0,0,1705.7,515.47Z"/><path class="cls-1" d="M1870.28,494.71h73v17.95h-51.36v20.83h46.16v17.94h-46.16v21.24h52.87v17.94h-74.51Z"/><path class="cls-1" d="M2155.46,494.71H2176v95.9h-19.73L2109.85,529v61.65h-20.69v-95.9h19.73l46.57,61.93Z"/><path class="cls-1" d="M2315,494.71h80.14v18.36h-29.32v77.54h-21.64V513.07H2315Z"/><path class="cls-1" d="M2534.19,494.71h73v17.95h-51.36v20.83H2602v17.94h-46.16v21.24h52.87v17.94h-74.52Z"/><path class="cls-1" d="M2812,590.61l-15.2-27.4h-22.06v27.4h-21.64v-95.9h41.64q18.77,0,29,8.7T2834,528q0,11.09-4.58,19a29.53,29.53,0,0,1-13.36,12l20.41,31.64Zm-37.26-45.48h20q9,0,13.91-4.18t4.86-12.26q0-8-4.86-12t-13.91-4h-20Z"/></svg>